<svg width="240" height="67" viewBox="0 0 240 67" fill="none" xmlns="http://www.w3.org/2000/svg">
<g filter="url(#filter0_d_302_2)">
<path d="M37.893 48.2721C37.9522 42.3977 36.4171 37.6208 34.4644 37.6022C32.5116 37.5838 30.8805 42.3308 30.8214 48.205C30.7622 54.0793 32.2973 58.8564 34.25 58.8748C36.2029 58.8934 37.8339 54.1464 37.893 48.2721Z" fill="#4855CF"/>
<path d="M26.5676 46.9379C29.8913 42.0273 31.2622 37.2035 29.6299 36.1636C27.9974 35.1238 23.9797 38.2616 20.6561 43.1721C17.3324 48.0827 15.9614 52.9064 17.5938 53.9464C19.2263 54.9863 23.2439 51.8485 26.5676 46.9379Z" fill="#4855CF"/>
<path d="M17.77 39.8925C23.3028 37.5051 27.1445 34.1663 26.3507 32.4352C25.5571 30.7042 20.4286 31.2364 14.8959 33.624C9.36314 36.0114 5.52141 39.3502 6.31509 41.0813C7.10876 42.8123 12.2373 42.2801 17.77 39.8925Z" fill="#4855CF"/>
<path d="M25.6867 27.5808C25.9838 25.7083 21.3729 23.4659 15.3881 22.5722C9.4032 21.6785 4.31066 22.4721 4.01359 24.3446C3.71651 26.2171 8.32739 28.4594 14.3123 29.3531C20.2971 30.2468 25.3897 29.4532 25.6867 27.5808Z" fill="#4855CF"/>
<path d="M27.8355 23.1201C29.1288 21.7006 26.4989 17.3961 21.9616 13.5057C17.4244 9.61547 12.6978 7.61258 11.4045 9.03217C10.1113 10.4518 12.7411 14.7563 17.2784 18.6466C21.8157 22.5369 26.5423 24.5397 27.8355 23.1201Z" fill="#4855CF"/>
<path d="M32.1148 20.5131C33.9939 19.9972 34.1806 14.9966 32.5319 9.34408C30.8832 3.69149 28.0233 -0.472658 26.1442 0.0431948C24.2651 0.559048 24.0784 5.55955 25.7271 11.2122C27.3758 16.8647 30.2357 21.0289 32.1148 20.5131Z" fill="#4855CF"/>
<path d="M43.7348 11.3881C45.4982 5.7681 45.4132 0.764986 43.5449 0.213293C41.6767 -0.338412 38.7327 3.77021 36.9693 9.39016C35.2061 15.0101 35.291 20.0132 37.1593 20.5649C39.0276 21.1166 41.9715 17.008 43.7348 11.3881Z" fill="#4855CF"/>
<path d="M52.0377 18.9818C56.6526 15.1783 59.3687 10.9244 58.1042 9.48065C56.8398 8.03681 52.0738 9.94973 47.459 13.7531C42.8442 17.5566 40.1282 21.8105 41.3926 23.2543C42.6569 24.6981 47.423 22.7853 52.0377 18.9818Z" fill="#4855CF"/>
<path d="M54.7831 29.7279C60.7851 28.9489 65.4406 26.7952 65.1816 24.9173C64.9227 23.0395 59.8472 22.1488 53.8453 22.9277C47.8435 23.7067 43.1879 25.8604 43.4469 27.7383C43.7059 29.6161 48.7812 30.5069 54.7831 29.7279Z" fill="#4855CF"/>
<path d="M62.5257 41.618C63.3544 39.9025 59.5813 36.4909 54.0981 33.998C48.6151 31.5051 43.4984 30.8749 42.6696 32.5904C41.8409 34.306 45.614 37.7176 51.0972 40.2105C56.5802 42.7033 61.697 43.3336 62.5257 41.618Z" fill="#4855CF"/>
<path d="M50.9922 54.2758C52.6454 53.2674 51.3727 48.4182 48.1495 43.445C44.9264 38.4719 40.9732 35.2579 39.32 36.2663C37.6668 37.2747 38.9394 42.1238 42.1626 47.097C45.3858 52.0702 49.3389 55.2843 50.9922 54.2758Z" fill="#4855CF"/>
</g>
<path d="M96.0942 27.3242V30.0663H87.188V27.3242H96.0942ZM88.231 20.3749V37.4374H84.7153V20.3749H88.231ZM98.6021 20.3749V37.4374H95.0981V20.3749H98.6021ZM107.286 37.6718C106.301 37.6718 105.418 37.5156 104.637 37.2031C103.856 36.8828 103.192 36.4413 102.645 35.8788C102.106 35.3163 101.692 34.664 101.403 33.9218C101.114 33.1718 100.969 32.3749 100.969 31.5312V31.0624C100.969 30.1015 101.106 29.2226 101.379 28.4257C101.653 27.6288 102.043 26.9374 102.551 26.3515C103.067 25.7656 103.692 25.3163 104.426 25.0038C105.161 24.6835 105.989 24.5234 106.911 24.5234C107.809 24.5234 108.606 24.6718 109.301 24.9687C109.997 25.2656 110.579 25.6874 111.047 26.2343C111.524 26.7812 111.883 27.4374 112.125 28.2031C112.368 28.9609 112.489 29.8046 112.489 30.7343V32.1406H102.411V29.8906H109.172V29.6328C109.172 29.164 109.086 28.746 108.915 28.3788C108.75 28.0038 108.5 27.707 108.165 27.4882C107.829 27.2695 107.399 27.1601 106.875 27.1601C106.43 27.1601 106.047 27.2578 105.727 27.4531C105.407 27.6484 105.145 27.9218 104.942 28.2734C104.747 28.6249 104.598 29.039 104.497 29.5156C104.403 29.9843 104.356 30.4999 104.356 31.0624V31.5312C104.356 32.039 104.426 32.5078 104.567 32.9374C104.715 33.3671 104.922 33.7382 105.188 34.0507C105.461 34.3632 105.79 34.6054 106.172 34.7773C106.563 34.9492 107.004 35.0351 107.497 35.0351C108.106 35.0351 108.672 34.9179 109.196 34.6835C109.727 34.4413 110.184 34.0781 110.567 33.5937L112.208 35.3749C111.942 35.7578 111.579 36.1249 111.118 36.4765C110.665 36.8281 110.118 37.1171 109.477 37.3437C108.836 37.5624 108.106 37.6718 107.286 37.6718ZM121.254 34.5781V28.9296C121.254 28.5234 121.188 28.1757 121.055 27.8867C120.922 27.5898 120.715 27.3593 120.434 27.1953C120.161 27.0312 119.805 26.9492 119.368 26.9492C118.993 26.9492 118.668 27.0156 118.395 27.1484C118.122 27.2734 117.911 27.457 117.762 27.6992C117.614 27.9335 117.54 28.2109 117.54 28.5312H114.165C114.165 27.9921 114.29 27.4804 114.54 26.996C114.79 26.5117 115.153 26.0859 115.629 25.7187C116.106 25.3437 116.672 25.0507 117.329 24.8398C117.993 24.6288 118.735 24.5234 119.555 24.5234C120.54 24.5234 121.415 24.6874 122.18 25.0156C122.946 25.3437 123.547 25.8359 123.985 26.4921C124.43 27.1484 124.653 27.9687 124.653 28.9531V34.3788C124.653 35.0742 124.696 35.6445 124.782 36.0898C124.868 36.5273 124.993 36.9101 125.157 37.2382V37.4374H121.747C121.583 37.0937 121.458 36.664 121.372 36.1484C121.293 35.6249 121.254 35.1015 121.254 34.5781ZM121.7 29.7148L121.723 31.6249H119.836C119.391 31.6249 119.004 31.6757 118.676 31.7773C118.348 31.8788 118.079 32.0234 117.868 32.2109C117.657 32.3906 117.5 32.6015 117.399 32.8437C117.305 33.0859 117.258 33.3515 117.258 33.6406C117.258 33.9296 117.325 34.1913 117.458 34.4257C117.59 34.6523 117.782 34.832 118.032 34.9648C118.282 35.0898 118.575 35.1523 118.911 35.1523C119.418 35.1523 119.86 35.0507 120.235 34.8476C120.61 34.6445 120.899 34.3945 121.102 34.0976C121.313 33.8007 121.422 33.5195 121.43 33.2538L122.321 34.6835C122.196 35.0038 122.024 35.3359 121.805 35.6796C121.594 36.0234 121.325 36.3476 120.997 36.6523C120.668 36.9492 120.274 37.1953 119.813 37.3906C119.352 37.5781 118.805 37.6718 118.172 37.6718C117.368 37.6718 116.637 37.5117 115.981 37.1913C115.333 36.8632 114.817 36.414 114.434 35.8437C114.059 35.2656 113.872 34.6093 113.872 33.8749C113.872 33.2109 113.997 32.621 114.247 32.1054C114.497 31.5898 114.864 31.1562 115.348 30.8046C115.84 30.4453 116.454 30.1757 117.188 29.996C117.922 29.8085 118.774 29.7148 119.743 29.7148H121.7ZM130.817 19.4374V37.4374H127.43V19.4374H130.817ZM139.817 24.7578V27.1484H132.434V24.7578H139.817ZM134.262 21.6288H137.637V33.6171C137.637 33.9843 137.684 34.2656 137.778 34.4609C137.879 34.6562 138.028 34.7929 138.223 34.871C138.418 34.9413 138.665 34.9765 138.961 34.9765C139.172 34.9765 139.36 34.9687 139.524 34.9531C139.696 34.9296 139.84 34.9062 139.958 34.8828L139.969 37.3671C139.68 37.4609 139.368 37.5351 139.032 37.5898C138.696 37.6445 138.325 37.6718 137.918 37.6718C137.176 37.6718 136.528 37.5507 135.973 37.3085C135.426 37.0585 135.004 36.6601 134.708 36.1132C134.411 35.5663 134.262 34.8476 134.262 33.957V21.6288ZM145.032 19.4374V37.4374H141.657V19.4374H145.032ZM144.551 30.6523H143.625C143.633 29.7695 143.75 28.957 143.977 28.2148C144.204 27.4648 144.528 26.8163 144.95 26.2695C145.372 25.7148 145.875 25.2851 146.461 24.9804C147.055 24.6757 147.711 24.5234 148.43 24.5234C149.055 24.5234 149.622 24.6132 150.129 24.7929C150.645 24.9648 151.086 25.246 151.454 25.6367C151.829 26.0195 152.118 26.5234 152.321 27.1484C152.524 27.7734 152.625 28.5312 152.625 29.4218V37.4374H149.227V29.3984C149.227 28.8359 149.145 28.3945 148.981 28.0742C148.825 27.746 148.594 27.5156 148.29 27.3828C147.993 27.2421 147.625 27.1718 147.188 27.1718C146.704 27.1718 146.29 27.2617 145.946 27.4413C145.61 27.621 145.34 27.871 145.137 28.1913C144.934 28.5038 144.786 28.871 144.692 29.2929C144.598 29.7148 144.551 30.1679 144.551 30.6523Z" fill="#4855CF"/>
<path d="M159.516 34.7304L162.915 20.3749H164.813L165.247 22.7656L161.625 37.4374H159.586L159.516 34.7304ZM157.77 20.3749L160.583 34.7304L160.348 37.4374H158.075L154.29 20.3749H157.77ZM168.235 34.6718L171.012 20.3749H174.493L170.719 37.4374H168.446L168.235 34.6718ZM165.879 20.3749L169.301 34.789L169.208 37.4374H167.168L163.524 22.7538L163.993 20.3749H165.879ZM181.653 37.6718C180.668 37.6718 179.786 37.5156 179.004 37.2031C178.223 36.8828 177.559 36.4413 177.012 35.8788C176.473 35.3163 176.059 34.664 175.77 33.9218C175.481 33.1718 175.336 32.3749 175.336 31.5312V31.0624C175.336 30.1015 175.473 29.2226 175.747 28.4257C176.02 27.6288 176.411 26.9374 176.918 26.3515C177.434 25.7656 178.059 25.3163 178.793 25.0038C179.528 24.6835 180.356 24.5234 181.278 24.5234C182.176 24.5234 182.973 24.6718 183.668 24.9687C184.364 25.2656 184.946 25.6874 185.415 26.2343C185.891 26.7812 186.25 27.4374 186.493 28.2031C186.735 28.9609 186.856 29.8046 186.856 30.7343V32.1406H176.778V29.8906H183.54V29.6328C183.54 29.164 183.454 28.746 183.282 28.3788C183.118 28.0038 182.868 27.707 182.532 27.4882C182.196 27.2695 181.766 27.1601 181.243 27.1601C180.797 27.1601 180.415 27.2578 180.094 27.4531C179.774 27.6484 179.512 27.9218 179.309 28.2734C179.114 28.6249 178.965 29.039 178.864 29.5156C178.77 29.9843 178.723 30.4999 178.723 31.0624V31.5312C178.723 32.039 178.793 32.5078 178.934 32.9374C179.083 33.3671 179.29 33.7382 179.555 34.0507C179.829 34.3632 180.157 34.6054 180.54 34.7773C180.93 34.9492 181.372 35.0351 181.864 35.0351C182.473 35.0351 183.04 34.9179 183.563 34.6835C184.094 34.4413 184.551 34.0781 184.934 33.5937L186.575 35.3749C186.309 35.7578 185.946 36.1249 185.485 36.4765C185.032 36.8281 184.485 37.1171 183.844 37.3437C183.204 37.5624 182.473 37.6718 181.653 37.6718ZM188.778 19.4374H192.153V34.5312L191.813 37.4374H188.778V19.4374ZM200.18 30.9687V31.2148C200.18 32.1601 200.079 33.0273 199.875 33.8163C199.68 34.6054 199.375 35.289 198.961 35.8671C198.547 36.4374 198.032 36.8828 197.415 37.2031C196.805 37.5156 196.086 37.6718 195.258 37.6718C194.485 37.6718 193.813 37.5156 193.243 37.2031C192.68 36.8906 192.208 36.4492 191.825 35.8788C191.442 35.3085 191.133 34.6406 190.899 33.8749C190.665 33.1093 190.489 32.2734 190.372 31.3671V30.8281C190.489 29.9218 190.665 29.0859 190.899 28.3203C191.133 27.5546 191.442 26.8867 191.825 26.3163C192.208 25.746 192.68 25.3046 193.243 24.9921C193.805 24.6796 194.469 24.5234 195.235 24.5234C196.071 24.5234 196.797 24.6835 197.415 25.0038C198.04 25.3163 198.555 25.7617 198.961 26.3398C199.375 26.9101 199.68 27.5898 199.875 28.3788C200.079 29.1601 200.18 30.0234 200.18 30.9687ZM196.805 31.2148V30.9687C196.805 30.4531 196.766 29.9687 196.688 29.5156C196.618 29.0546 196.493 28.6523 196.313 28.3085C196.133 27.957 195.887 27.6796 195.575 27.4765C195.27 27.2734 194.875 27.1718 194.391 27.1718C193.93 27.1718 193.54 27.2499 193.219 27.4062C192.899 27.5624 192.633 27.7812 192.422 28.0624C192.219 28.3437 192.067 28.6796 191.965 29.0703C191.864 29.4531 191.801 29.8749 191.778 30.3359V31.871C191.801 32.4882 191.903 33.0351 192.083 33.5117C192.27 33.9804 192.551 34.3515 192.926 34.6249C193.309 34.8906 193.805 35.0234 194.415 35.0234C194.891 35.0234 195.286 34.9296 195.598 34.7421C195.911 34.5546 196.153 34.289 196.325 33.9453C196.504 33.6015 196.629 33.1992 196.7 32.7382C196.77 32.2695 196.805 31.7617 196.805 31.2148ZM205.313 29.6679L202.618 29.0234L203.59 20.3749H213.176V23.1054H206.368L205.946 26.8906C206.172 26.7578 206.516 26.6171 206.977 26.4687C207.438 26.3124 207.954 26.2343 208.524 26.2343C209.352 26.2343 210.086 26.3632 210.727 26.621C211.368 26.8788 211.911 27.2538 212.356 27.746C212.809 28.2382 213.153 28.8398 213.387 29.5507C213.622 30.2617 213.739 31.0663 213.739 31.9648C213.739 32.7226 213.622 33.4453 213.387 34.1328C213.153 34.8124 212.797 35.4218 212.321 35.9609C211.844 36.4921 211.247 36.9101 210.528 37.2148C209.809 37.5195 208.958 37.6718 207.973 37.6718C207.239 37.6718 206.528 37.5624 205.84 37.3437C205.161 37.1249 204.547 36.8007 204 36.371C203.461 35.9413 203.028 35.4218 202.7 34.8124C202.379 34.1953 202.211 33.4921 202.196 32.7031H205.547C205.594 33.1874 205.719 33.6054 205.922 33.957C206.133 34.3007 206.411 34.5663 206.754 34.7538C207.098 34.9413 207.5 35.0351 207.961 35.0351C208.391 35.0351 208.758 34.9531 209.063 34.789C209.368 34.6249 209.614 34.3984 209.801 34.1093C209.989 33.8124 210.125 33.4687 210.211 33.0781C210.305 32.6796 210.352 32.2499 210.352 31.789C210.352 31.3281 210.297 30.9101 210.188 30.5351C210.079 30.1601 209.911 29.8359 209.684 29.5624C209.458 29.289 209.168 29.0781 208.817 28.9296C208.473 28.7812 208.071 28.707 207.61 28.707C206.985 28.707 206.5 28.8046 206.157 28.9999C205.821 29.1953 205.54 29.4179 205.313 29.6679ZM216.223 35.8085C216.223 35.3085 216.395 34.8906 216.739 34.5546C217.09 34.2187 217.555 34.0507 218.133 34.0507C218.711 34.0507 219.172 34.2187 219.516 34.5546C219.868 34.8906 220.043 35.3085 220.043 35.8085C220.043 36.3085 219.868 36.7265 219.516 37.0624C219.172 37.3984 218.711 37.5663 218.133 37.5663C217.555 37.5663 217.09 37.3984 216.739 37.0624C216.395 36.7265 216.223 36.3085 216.223 35.8085ZM237.247 28.5078V29.3163C237.247 30.6132 237.071 31.7773 236.719 32.8085C236.368 33.8398 235.872 34.7187 235.231 35.4453C234.59 36.164 233.825 36.7148 232.934 37.0976C232.051 37.4804 231.071 37.6718 229.993 37.6718C228.922 37.6718 227.942 37.4804 227.051 37.0976C226.168 36.7148 225.403 36.164 224.754 35.4453C224.106 34.7187 223.602 33.8398 223.243 32.8085C222.891 31.7773 222.715 30.6132 222.715 29.3163V28.5078C222.715 27.2031 222.891 26.039 223.243 25.0156C223.594 23.9843 224.09 23.1054 224.731 22.3788C225.379 21.6523 226.145 21.0976 227.028 20.7148C227.918 20.332 228.899 20.1406 229.969 20.1406C231.047 20.1406 232.028 20.332 232.911 20.7148C233.801 21.0976 234.567 21.6523 235.208 22.3788C235.856 23.1054 236.356 23.9843 236.708 25.0156C237.067 26.039 237.247 27.2031 237.247 28.5078ZM233.696 29.3163V28.4843C233.696 27.5781 233.614 26.7812 233.45 26.0937C233.286 25.4062 233.043 24.8281 232.723 24.3593C232.403 23.8906 232.012 23.539 231.551 23.3046C231.09 23.0624 230.563 22.9413 229.969 22.9413C229.375 22.9413 228.848 23.0624 228.387 23.3046C227.934 23.539 227.547 23.8906 227.227 24.3593C226.915 24.8281 226.676 25.4062 226.512 26.0937C226.348 26.7812 226.266 27.5781 226.266 28.4843V29.3163C226.266 30.2148 226.348 31.0117 226.512 31.707C226.676 32.3945 226.918 32.9765 227.239 33.4531C227.559 33.9218 227.95 34.2773 228.411 34.5195C228.872 34.7617 229.399 34.8828 229.993 34.8828C230.586 34.8828 231.114 34.7617 231.575 34.5195C232.036 34.2773 232.422 33.9218 232.735 33.4531C233.047 32.9765 233.286 32.3945 233.45 31.707C233.614 31.0117 233.696 30.2148 233.696 29.3163Z" fill="black"/>
<defs>
<filter id="filter0_d_302_2" x="0" y="0" width="69.1919" height="66.8749" filterUnits="userSpaceOnUse" color-interpolation-filters="sRGB">
<feFlood flood-opacity="0" result="BackgroundImageFix"/>
<feColorMatrix in="SourceAlpha" type="matrix" values="0 0 0 0 0 0 0 0 0 0 0 0 0 0 0 0 0 0 127 0" result="hardAlpha"/>
<feOffset dy="4"/>
<feGaussianBlur stdDeviation="2"/>
<feComposite in2="hardAlpha" operator="out"/>
<feColorMatrix type="matrix" values="0 0 0 0 0 0 0 0 0 0 0 0 0 0 0 0 0 0 0.25 0"/>
<feBlend mode="normal" in2="BackgroundImageFix" result="effect1_dropShadow_302_2"/>
<feBlend mode="normal" in="SourceGraphic" in2="effect1_dropShadow_302_2" result="shape"/>
</filter>
</defs>
</svg>
